<svg width="46" height="46" viewBox="0 0 46 46" fill="none" xmlns="http://www.w3.org/2000/svg">
<path d="M21.1289 21.7621C21.2556 21.7621 21.2556 21.6353 21.1289 21.7621C21.2556 21.6353 21.2556 21.6353 21.1289 21.7621Z" fill="#081219"/>
<path d="M12.652 21.509C11.8929 21.509 10.5012 21.6355 9.10938 22.3946C9.10938 22.3946 10.7542 22.9007 12.0194 23.6599C12.2725 26.3168 15.5621 27.4555 15.5621 27.4555C17.3334 32.0103 26.5695 34.7938 26.5695 34.7938C26.9491 35.553 25.4308 44.283 28.2143 41.7526C28.9734 42.6382 30.1121 42.1321 30.1121 42.1321C31.3774 43.5239 32.8956 42.3852 32.8956 42.3852C34.4139 43.3974 35.6791 42.3852 35.6791 42.3852C34.1609 39.6017 29.8591 26.4433 28.4674 25.4312C32.5161 25.4312 35.5526 21.8885 35.5526 21.8885C35.0465 22.1416 32.7691 21.8885 32.7691 21.8885C35.6791 20.4968 36.6913 16.3216 36.6913 16.3216C36.6913 16.3216 36.6913 15.8155 36.5648 16.3216C36.4383 16.8276 34.1609 18.0929 34.1609 18.0929C35.173 16.9542 35.9322 11.0076 35.9322 11.0076C35.4261 12.0198 32.1365 15.1828 32.1365 15.1828C34.5404 12.5259 34.92 4.555 34.92 4.555C34.4139 5.6937 31.6304 8.98329 28.5939 12.3994C28.5939 6.57936 25.9369 2.78369 25.9369 2.78369C26.696 4.80805 19.9904 21.762 19.9904 21.762C15.6886 18.3459 13.5377 20.1172 12.652 21.509Z" fill="#081219"/>
</svg>
